<svg width="24" height="16" viewBox="0 0 24 16" fill="none" xmlns="http://www.w3.org/2000/svg">
<path d="M22.8956 2.52336C22.7662 2.04239 22.5126 1.60386 22.1604 1.25166C21.8082 0.899462 21.3697 0.645945 20.8888 0.516484C19.1175 0.0371095 12 0.0371094 12 0.0371094C12 0.0371094 4.8825 0.0371095 3.11125 0.516484C2.63028 0.645945 2.19175 0.899462 1.83955 1.25166C1.48735 1.60386 1.23384 2.04239 1.10438 2.52336C0.773644 4.32976 0.613149 6.16322 0.625001 7.99961C0.613149 9.836 0.773644 11.6695 1.10438 13.4759C1.23384 13.9568 1.48735 14.3954 1.83955 14.7476C2.19175 15.0998 2.63028 15.3533 3.11125 15.4827C4.8825 15.9621 12 15.9621 12 15.9621C12 15.9621 19.1175 15.9621 20.8888 15.4827C21.3697 15.3533 21.8082 15.0998 22.1604 14.7476C22.5126 14.3954 22.7662 13.9568 22.8956 13.4759C23.2264 11.6695 23.3869 9.836 23.375 7.99961C23.3869 6.16322 23.2264 4.32976 22.8956 2.52336ZM9.725 11.4121V4.58711L15.6319 7.99961L9.725 11.4121Z" fill="white"/>
</svg>
